<?xml version="1.0" standalone="no"?>
<!DOCTYPE svg PUBLIC "-//W3C//DTD SVG 20010904//EN"
 "http://www.w3.org/TR/2001/REC-SVG-20010904/DTD/svg10.dtd">
<svg version="1.0" xmlns="http://www.w3.org/2000/svg"
 width="512.000000pt" height="512.000000pt" viewBox="0 0 512.000000 512.000000"
 preserveAspectRatio="xMidYMid meet">
<metadata>
Created by potrace 1.14, written by Peter Selinger 2001-2017
</metadata>
<g transform="translate(0.000000,512.000000) scale(0.100000,-0.100000)"
fill="#000000" stroke="none">
<path d="M495 4832 c-3 -3 -5 -995 -5 -2204 l0 -2198 125 0 125 0 0 -130 0
-130 282 2 282 3 0 1622 c1 892 4 1619 9 1614 4 -4 14 -30 22 -57 7 -27 73
-222 145 -434 144 -421 265 -778 310 -910 16 -47 92 -272 170 -500 78 -228
153 -449 167 -490 14 -41 61 -181 104 -310 44 -129 85 -245 91 -257 10 -20 20
-23 91 -25 l80 -3 42 -125 42 -125 265 -3 266 -2 28 82 c16 46 29 85 29 88 1
3 4 12 8 20 3 8 15 44 27 80 29 85 26 78 72 205 21 61 41 117 43 125 2 8 67
197 145 420 176 503 283 811 350 1005 161 465 319 917 323 921 1 1 2 -601 2
-1339 l0 -1342 127 -3 127 -3 0 -97 c0 -53 0 -112 0 -129 l1 -33 280 0 280 0
0 2199 c0 1750 -3 2200 -12 2203 -7 3 -62 4 -122 3 -83 -1 -109 2 -113 12 -3
8 -6 67 -7 131 l-1 117 -392 1 c-216 1 -393 0 -393 -1 0 -2 -112 -328 -292
-850 -151 -439 -167 -485 -187 -545 -11 -30 -65 -188 -121 -350 -56 -162 -128
-371 -160 -465 -32 -93 -82 -237 -110 -320 -123 -354 -293 -854 -307 -900 -9
-27 -19 -54 -23 -58 -4 -4 -51 124 -104 285 -54 161 -100 300 -103 308 -8 23
-374 1114 -377 1125 -2 6 -6 17 -9 25 -3 8 -34 98 -67 200 -33 102 -64 192
-67 200 -3 8 -7 20 -9 25 -1 6 -81 246 -178 535 -97 288 -176 525 -176 525 0
0 -37 0 -82 0 l-82 0 -45 131 -45 131 -433 0 c-238 0 -435 -2 -438 -5z"/>
</g>
</svg>
