<svg width="21" height="21" viewBox="0 0 21 21" fill="none" xmlns="http://www.w3.org/2000/svg">
<g clip-path="url(#clip0_36_122)">
<path d="M3.98033 0.935579C4.06197 0.413552 4.53563 0.0451171 5.0617 0.0944524L5.06338 0.094611L5.06597 0.0948592L5.07386 0.0956293L5.10011 0.0982995C5.12213 0.100594 5.1531 0.103941 5.19199 0.108444C5.2697 0.11744 5.37949 0.1311 5.51322 0.150275C5.77946 0.188448 6.14672 0.249347 6.54809 0.340517C6.94653 0.43102 7.39751 0.555566 7.82431 0.725814C8.08299 0.828999 8.36009 0.95953 8.61989 1.12687C9.29002 1.00674 10.3426 0.863548 11.3493 0.863548C12.3561 0.863548 13.4086 1.00674 14.0788 1.12687C14.3386 0.95953 14.6157 0.828999 14.8744 0.725814C15.3012 0.555566 15.7521 0.43102 16.1506 0.340517C16.552 0.249347 16.9192 0.188448 17.1854 0.150275C17.3192 0.1311 17.429 0.11744 17.5067 0.108444C17.5456 0.103941 17.5765 0.100594 17.5986 0.0982995L17.6248 0.0956293L17.6327 0.0948592L17.6353 0.094611L17.637 0.0944524C18.163 0.0451171 18.6367 0.413774 18.7184 0.935802L18.7188 0.938888L18.7199 0.945641L18.7234 0.969124C18.7264 0.989087 18.7306 1.01754 18.7357 1.05348C18.7459 1.12532 18.7598 1.22742 18.7752 1.35183C18.8059 1.59958 18.843 1.94091 18.8679 2.31065C18.8926 2.67675 18.9067 3.09046 18.8863 3.47727C18.8785 3.62403 18.865 3.79059 18.8383 3.96273C19.5732 4.93864 20.1331 6.77586 19.6236 9.40184C19.2668 11.2409 18.0968 12.4192 16.8649 13.1236C16.2813 13.4573 15.6707 13.6937 15.0958 13.8538L15.152 13.9361C15.2654 14.1023 15.3261 14.2988 15.3261 14.5V18.5C15.3261 19.0523 14.8784 19.5 14.3261 19.5C13.7738 19.5 13.3261 19.0523 13.3261 18.5V15.4264C13.3261 15.024 13.2047 14.631 12.9779 14.2987L12.5676 13.6977C12.3635 13.3987 12.3369 13.0127 12.4981 12.6886C12.6593 12.3644 12.9831 12.1527 13.3447 12.1351C13.9714 12.1045 14.9806 11.8971 15.8721 11.3874C16.7433 10.8892 17.4425 10.143 17.6602 9.02089C18.1895 6.29322 17.2667 5.14571 17.1155 5.02781C16.7428 4.73728 16.6246 4.22498 16.8317 3.80028C16.8347 3.79091 16.8734 3.66856 16.889 3.37182C16.9036 3.09649 16.8944 2.77071 16.8724 2.44512C16.8676 2.37385 16.8623 2.30353 16.8566 2.23481C16.7713 2.25182 16.6833 2.27046 16.5936 2.29084C16.2556 2.36761 15.9128 2.46482 15.6154 2.58348C15.3052 2.70721 15.1116 2.82803 15.0151 2.9198C14.7736 3.14942 14.4335 3.24362 14.1083 3.17102C13.6577 3.07045 12.4461 2.86355 11.3493 2.86355C10.2526 2.86355 9.04096 3.07045 8.5904 3.17102C8.26514 3.24362 7.92509 3.14942 7.68356 2.9198C7.58702 2.82803 7.39351 2.70721 7.08331 2.58348C6.78585 2.46482 6.44309 2.36761 6.10509 2.29084C6.01538 2.27046 5.92733 2.25182 5.84209 2.23481C5.83638 2.30353 5.83103 2.37385 5.82623 2.44512C5.80429 2.77071 5.79509 3.09649 5.80962 3.37182C5.82529 3.66856 5.86418 3.79149 5.86715 3.80086C6.07426 4.22557 5.95583 4.73728 5.58318 5.02781C5.43196 5.14571 4.50919 6.29322 5.03844 9.02089C5.25617 10.143 5.95536 10.8892 6.82654 11.3874C7.71802 11.8971 8.72723 12.1045 9.35392 12.1351C9.71553 12.1527 10.0394 12.3644 10.2006 12.6886C10.3618 13.0127 10.3352 13.3987 10.1311 13.6977L9.72079 14.2987C9.49392 14.631 9.37255 15.024 9.37255 15.4264C9.37255 16.4515 9.37255 17.4718 9.37255 18.5C9.37255 19.0523 8.92484 19.5 8.37255 19.5C7.82027 19.5 7.37255 19.0523 7.37255 18.5V17.3011C6.70881 17.3654 6.12138 17.311 5.59471 17.1473C4.74201 16.8822 4.17301 16.3687 3.75742 15.8849C3.57094 15.6678 3.40459 15.4434 3.26621 15.2567L3.2332 15.2122C3.0787 15.004 2.96159 14.85 2.84577 14.7245C2.63689 14.4982 2.52815 14.4654 2.39935 14.4654C1.84707 14.4654 1.39935 14.0177 1.39935 13.4654C1.39935 12.9131 1.84707 12.4654 2.39935 12.4654C3.29262 12.4654 3.89518 12.9126 4.31559 13.3682C4.51442 13.5837 4.69146 13.8211 4.8392 14.0202L4.86364 14.0531C5.01064 14.2513 5.13669 14.4212 5.27456 14.5817C5.55301 14.9059 5.8248 15.1244 6.1884 15.2374C6.45269 15.3196 6.82772 15.3649 7.37255 15.2874V14.5C7.37255 14.2988 7.43324 14.1023 7.54667 13.9361L7.60285 13.8538C7.02797 13.6937 6.4174 13.4573 5.83377 13.1236C4.60188 12.4192 3.4319 11.2409 3.07506 9.40184C2.56554 6.77586 3.12543 4.93864 3.86035 3.96273C3.83366 3.79059 3.82015 3.62403 3.81241 3.47727C3.79198 3.09046 3.80609 2.67675 3.83076 2.31065C3.85567 1.94091 3.89281 1.59958 3.92345 1.35183C3.93884 1.22742 3.95276 1.12532 3.96296 1.05348C3.96806 1.01754 3.97225 0.989087 3.97523 0.969124L3.97878 0.945641L3.97982 0.938888L3.98033 0.935579Z" fill="white"/>
</g>
<defs>
<clipPath id="clip0_36_122">
<rect width="20" height="20" fill="white" transform="translate(0.399353 0.0900269)"/>
</clipPath>
</defs>
</svg>
