<svg width="145" height="74" viewBox="0 0 145 74" fill="none" xmlns="http://www.w3.org/2000/svg">
<g clip-path="url(#clip0_98_841)">
<path d="M14.9811 56C10.9861 56 8.48899 58 7.49038 62.0001C8.98857 59.9998 10.7364 59.2499 12.7339 59.7501C13.8733 60.0352 14.688 60.8632 15.5897 61.7796C17.0585 63.2721 18.7584 65 22.4714 65C26.4664 65 28.9632 63 29.9618 58.9999C28.4639 61.0002 26.7161 61.7501 24.7186 61.2499C23.5789 60.9648 22.7644 60.1368 21.8628 59.2204C20.3937 57.7279 18.6941 56 14.9811 56ZM7.49038 65C3.49568 65 0.998605 67 0 71.0001C1.49819 68.9998 3.24575 68.2499 5.24324 68.7501C6.38296 69.0352 7.19766 69.8632 8.09907 70.7794C9.56807 72.2724 11.268 73.9997 14.9811 73.9997C18.9758 73.9997 21.4725 72 22.4714 67.9999C20.9732 70.0002 19.2254 70.7501 17.2282 70.2499C16.0885 69.9648 15.2738 69.1368 14.3721 68.2204C12.9034 66.7279 11.2034 65 7.49038 65Z" fill="url(#paint0_linear_98_841)"/>
<path d="M44.9406 63.5842H42.3262V68.6511C42.3262 70.0022 43.2117 69.9812 44.9406 69.8967V71.9444C41.4407 72.3666 40.049 71.3956 40.049 68.6511V63.5845H38.1093V61.389H40.049V58.5533L42.3262 57.8781V61.389H44.9406V63.5842ZM54.9068 61.389H57.184V71.9444H54.9068V70.4244C54.1057 71.5435 52.8617 72.219 51.2173 72.219C48.3496 72.219 45.967 69.7911 45.967 66.6667C45.967 63.5212 48.3496 61.1146 51.217 61.1146C52.8617 61.1146 54.1057 61.7899 54.9068 62.8879V61.389ZM51.5755 70.0445C53.4729 70.0445 54.9068 68.6301 54.9068 66.6667C54.9068 64.7032 53.4729 63.2888 51.5755 63.2888C49.678 63.2888 48.2442 64.7032 48.2442 66.6667C48.2442 68.6301 49.678 70.0445 51.5755 70.0445ZM60.9792 59.8055C60.1778 59.8055 59.5244 59.1302 59.5244 58.3491C59.5251 57.9629 59.6786 57.5929 59.9513 57.3199C60.224 57.0468 60.5936 56.8931 60.9792 56.8924C61.3648 56.8931 61.7344 57.0468 62.0071 57.3199C62.2798 57.5929 62.4333 57.9629 62.434 58.3491C62.434 59.1299 61.7803 59.8055 60.9792 59.8055ZM59.8406 71.9444V61.389H62.1175V71.9444H59.8406ZM64.7532 71.9444V56.5334H67.0303V71.9444H64.7532ZM81.8105 61.389H84.214L80.9037 71.9444H78.6687L76.476 64.8301L74.2623 71.9444H72.0273L68.717 61.389H71.1205L73.1659 68.6724L75.3796 61.389H77.5514L79.7441 68.6724L81.8105 61.389ZM87.0393 59.8057C86.2382 59.8057 85.5844 59.1302 85.5844 58.3491C85.5852 57.9629 85.7387 57.5929 86.0114 57.3199C86.284 57.0468 86.6537 56.8931 87.0393 56.8924C87.4249 56.8931 87.7945 57.0468 88.0672 57.3199C88.3398 57.5929 88.4934 57.9629 88.4941 58.3491C88.4941 59.1302 87.8404 59.8055 87.0393 59.8055V59.8057ZM85.9007 71.9444V61.389H88.1779V71.9444H85.9007ZM96.3585 61.1143C98.7199 61.1143 100.407 62.7188 100.407 65.4634V71.9444H98.1296V65.6955C98.1296 64.0912 97.2019 63.2468 95.7683 63.2468C94.2712 63.2468 93.0904 64.1332 93.0904 66.2868V71.9444H90.8132V61.389H93.0904V62.7401C93.7864 61.6421 94.9247 61.1143 96.3585 61.1143ZM111.202 57.1667H113.479V71.9444H111.202V70.4244C110.401 71.5435 109.157 72.219 107.512 72.219C104.645 72.219 102.262 69.7911 102.262 66.6667C102.262 63.5212 104.645 61.1146 107.512 61.1146C109.157 61.1146 110.401 61.7899 111.202 62.8879V57.1667ZM107.871 70.0445C109.768 70.0445 111.202 68.6301 111.202 66.6667C111.202 64.7032 109.768 63.2888 107.871 63.2888C105.973 63.2888 104.539 64.7032 104.539 66.6667C104.539 68.6301 105.973 70.0445 107.871 70.0445ZM121.111 72.219C117.928 72.219 115.545 69.7911 115.545 66.6667C115.545 63.5212 117.928 61.1146 121.111 61.1146C123.178 61.1146 124.97 62.1911 125.813 63.8379L123.852 64.9779C123.389 63.9857 122.355 63.3521 121.09 63.3521C119.235 63.3521 117.822 64.7668 117.822 66.6667C117.822 68.5666 119.235 69.9812 121.09 69.9812C122.355 69.9812 123.389 69.3267 123.895 68.3555L125.856 69.4745C124.97 71.1423 123.178 72.219 121.111 72.219ZM129.608 64.3023C129.608 66.2232 135.28 65.0622 135.28 68.9677C135.28 71.0787 133.446 72.219 131.169 72.219C129.06 72.219 127.542 71.2688 126.868 69.7489L128.828 68.6088C129.166 69.559 130.009 70.1288 131.169 70.1288C132.181 70.1288 132.961 69.7911 132.961 68.9468C132.961 67.0679 127.289 68.1234 127.289 64.3446C127.289 62.3599 128.997 61.1146 131.148 61.1146C132.876 61.1146 134.31 61.9167 135.048 63.3101L133.13 64.3866C132.75 63.5635 132.012 63.1836 131.148 63.1836C130.325 63.1836 129.608 63.5422 129.608 64.3023ZM139.328 64.3023C139.328 66.2232 145 65.0622 145 68.9677C145 71.0787 143.166 72.219 140.889 72.219C138.78 72.219 137.262 71.2688 136.587 69.7489L138.548 68.6088C138.885 69.559 139.729 70.1288 140.889 70.1288C141.9 70.1288 142.681 69.7911 142.681 68.9468C142.681 67.0679 137.009 68.1234 137.009 64.3446C137.009 62.3599 138.717 61.1146 140.868 61.1146C142.596 61.1146 144.03 61.9167 144.768 63.3101L142.849 64.3866C142.47 63.5635 141.732 63.1836 140.868 63.1836C140.045 63.1836 139.328 63.5422 139.328 64.3023Z" fill="white"/>
</g>
<g clip-path="url(#clip1_98_841)">
<path d="M124.997 0C114.496 0 106 8.49775 106 19C105.998 21.4956 106.489 23.967 107.443 26.273C108.397 28.5789 109.797 30.6741 111.561 32.4387C113.326 34.2034 115.421 35.6029 117.727 36.5571C120.033 37.5114 122.504 38.0017 125 38C135.502 38 144 29.5023 144 19C143.998 8.49775 135.431 0 124.997 0ZM116.086 23.0771C116.707 23.9052 117.536 24.2519 118.709 24.2519C119.264 24.2519 119.816 24.1823 120.299 23.9748C120.784 23.769 121.336 23.4903 122.025 23.0771L123.961 25.84C122.373 27.1542 120.576 27.7748 118.504 27.7748C116.844 27.7748 115.464 27.4297 114.221 26.7393C113.014 26.0275 112.05 24.9679 111.456 23.6993C110.836 22.3852 110.489 20.8652 110.489 19.0681C110.489 17.3423 110.836 15.7526 111.455 14.44C112.046 13.1323 113.008 12.0273 114.222 11.2623C115.396 10.5023 116.846 10.1571 118.436 10.1571C119.542 10.1571 120.578 10.2948 121.407 10.64C122.338 11.0003 123.202 11.5141 123.963 12.16L122.028 14.7852C121.537 14.4225 121.004 14.1205 120.44 13.8858C119.957 13.68 119.335 13.6103 118.781 13.6103C116.433 13.6103 115.258 15.4058 115.258 19.0665C115.19 20.9348 115.535 22.2458 116.087 23.0755L116.086 23.0771ZM135.086 27.36C134.396 29.5023 133.358 31.0919 131.907 32.2652C130.456 33.4416 128.521 34.0622 126.104 34.2697L125.621 31.0238C127.209 30.8148 128.384 30.4697 129.144 29.9155C129.419 29.7097 129.973 29.0874 129.973 29.0874L124.238 10.7097H129.004L132.321 24.4577L135.846 10.7097H140.474L135.086 27.36Z" fill="#E7E7E7"/>
</g>
<path fill-rule="evenodd" clip-rule="evenodd" d="M71.883 9.19766C70.7916 7.32117 68.0632 7.32114 66.9718 9.19766L55.0777 29.6488C53.9863 31.5253 55.3505 33.8709 57.5332 33.8709H66.8185C65.8858 33.0558 65.5404 31.6457 66.2462 30.4359L75.2543 14.9944L71.883 9.19766Z" fill="#80EEC0"/>
<path d="M79.4194 13.6837C80.3226 12.1484 82.5806 12.1484 83.4838 13.6837L93.3271 30.4164C94.2304 31.9518 93.1015 33.8709 91.2952 33.8709H71.6081C69.8018 33.8709 68.6727 31.9518 69.5759 30.4164L79.4194 13.6837Z" fill="#00DC82"/>
<path d="M8.53024 0.150635L16.0778 0.153588L21.0115 8.34293L25.9278 0.154244L33.4687 0.152275L21.0492 21.6953L8.53024 0.150635Z" fill="#35495E"/>
<path d="M0.298584 0.208293L8.52369 0.151855L21.0417 21.6962L33.4622 0.153168L41.7014 0.161699L21.0407 35.6189L0.298584 0.208293Z" fill="#41B883"/>
<defs>
<linearGradient id="paint0_linear_98_841" x1="-0.832272" y1="61.76" x2="25.0614" y2="76.6706" gradientUnits="userSpaceOnUse">
<stop stop-color="#2298BD"/>
<stop offset="1" stop-color="#0ED7B5"/>
</linearGradient>
<clipPath id="clip0_98_841">
<rect width="145" height="18" fill="white" transform="translate(0 56)"/>
</clipPath>
<clipPath id="clip1_98_841">
<rect width="38" height="38" fill="white" transform="translate(106)"/>
</clipPath>
</defs>
</svg>
