<svg width="20" height="20" viewBox="0 0 20 20" fill="none" xmlns="http://www.w3.org/2000/svg">
  <g clip-path="url(#clip0_30_76)">
    <path fill-rule="evenodd" clip-rule="evenodd"
      d="M6.08412 1.80171C7.26982 1.23437 8.59779 0.916672 9.99999 0.916672C15.0167 0.916672 19.0833 4.98329 19.0833 10C19.0833 15.0167 15.0167 19.0833 9.99999 19.0833C4.98328 19.0833 0.916656 15.0167 0.916656 10C0.916656 6.42691 2.97959 3.33578 5.97943 1.85264C6.01332 1.83274 6.04833 1.81578 6.08412 1.80171ZM6.1653 3.4562C4.30305 4.54981 2.94902 6.41566 2.54303 8.61392L4.79227 8.81969C6.50368 8.97371 8.18629 8.70197 9.71111 8.07088C9.32039 7.44463 8.89107 6.84073 8.42463 6.26261L6.1653 3.4562ZM11.0574 7.39587C10.6153 6.67601 10.1263 5.98291 9.59226 5.321L7.57334 2.81321C8.33522 2.55607 9.15132 2.41667 9.99999 2.41667C11.7162 2.41667 13.2991 2.98669 14.5699 3.94774C13.6759 5.38757 12.4633 6.5586 11.0574 7.39587ZM10.4571 9.38396C8.66716 10.1579 6.68009 10.4957 4.65775 10.3136L2.41742 10.1087C2.44422 12.0165 3.17546 13.7539 4.36276 15.0725C5.92659 12.7252 8.24831 11.045 10.8807 10.2635C10.7473 9.96664 10.606 9.67335 10.4571 9.38396ZM12.37 9.92367C12.1917 9.51041 11.9995 9.10336 11.7937 8.70317C13.335 7.79169 14.6748 6.5304 15.6878 4.98425C16.8675 6.32101 17.5833 8.07689 17.5833 10L17.5833 10.0247L15.3433 9.81979L15.3423 9.81969C14.3361 9.7291 13.3387 9.7672 12.37 9.92367ZM11.4417 11.6627C9.01463 12.3479 6.87906 13.9035 5.48702 16.0949C6.74802 17.0302 8.30938 17.5833 9.99999 17.5833C11.0056 17.5833 11.9655 17.3876 12.8436 17.0322L11.9796 13.4689C11.8307 12.8567 11.651 12.2536 11.4417 11.6627ZM14.2114 16.3075L13.4372 13.1149C13.2928 12.5208 13.1214 11.9345 12.9242 11.3586C13.6715 11.2612 14.4364 11.2442 15.2073 11.3136L17.4316 11.5171C17.0273 13.5082 15.8429 15.216 14.2114 16.3075Z"
      fill="white" />
  </g>
  <defs>
    <clipPath id="clip0_30_76">
      <rect width="20" height="20" />
    </clipPath>
  </defs>
</svg>