<svg width="20" height="20" viewBox="0 0 20 20" fill="none" xmlns="http://www.w3.org/2000/svg">
<g clip-path="url(#clip0_30_76)">
<path d="M15.4167 3.99167C13.25 7.78334 9.07501 9.95833 4.72501 9.56667L2.08334 9.325M4.58334 16.1417C6.75001 12.35 10.925 10.175 15.275 10.5667L17.9167 10.8083" stroke="white" stroke-width="1.5" stroke-miterlimit="10" stroke-linecap="round" stroke-linejoin="round"/>
<path d="M9.99999 18.3333C14.6025 18.3333 18.3333 14.6025 18.3333 10C18.3333 5.39751 14.6025 1.66667 9.99999 1.66667C5.39749 1.66667 1.66666 5.39751 1.66666 10C1.66666 14.6025 5.39749 18.3333 9.99999 18.3333Z" stroke="white" stroke-width="1.5" stroke-miterlimit="10" stroke-linecap="round" stroke-linejoin="round"/>
<path d="M6.35834 2.5L9.00834 5.79167C10.7833 7.99167 12.0417 10.55 12.7083 13.2917L13.7167 17.45" stroke="white" stroke-width="1.5" stroke-miterlimit="10" stroke-linecap="round" stroke-linejoin="round"/>
</g>
<defs>
<clipPath id="clip0_30_76">
<rect width="20" height="20" fill="white"/>
</clipPath>
</defs>
</svg>
